<svg width="192" height="192" viewBox="0 0 192 192" fill="none" xmlns="http://www.w3.org/2000/svg">
  <rect width="192" height="192" rx="40" fill="#1a4731"/>
  <path d="M96 45C75 45 55 55 45 75C45 95 65 115 96 145C127 115 147 95 147 75C137 55 117 45 96 45Z" fill="#f59e0b"/>
  <path d="M96 60C85 60 75 65 70 75C70 85 80 95 96 110C112 95 122 85 122 75C117 65 107 60 96 60Z" fill="white" fill-opacity="0.3"/>
  <path d="M105 75C105 79.9706 100.971 84 96 84C91.0294 84 87 79.9706 87 75C87 70.0294 91.0294 66 96 66C100.971 66 105 70.0294 105 75Z" fill="white"/>
</svg>